<svg xmlns="http://www.w3.org/2000/svg" width="24" height="24" viewBox="0 0 24 24"><g transform="translate(100.426 13.774)"><g transform="translate(-100.426 -13.774)"><path d="M11.92,25.121h6.955l3.3-3.136h1.361v-.875H22.449v-.674h1.133V19.56H22.449v-.916L25.867,15.8V5.844l-3.7-3.295H8.564l-3.639,3.3v9.723l3.36,3.063v1.019h-1.1v.875h1.1V21.2H7.145v.875H8.658Zm5.635-.875H13.218l2.143-2.072Zm3.306-2.261L18.677,24.06,15.83,21.372l.03-1.206L18.2,18.01H12.653l2.271,2.145-.03,1.212-2.784,2.692L9.984,22.076h.365V21.2H9.223v-.674h1.17v-.875H9.223V18.628l6.134-5.742,6.153,5.743v.931H20.378v.875h1.133v.674H20.334v.875h.528Zm-4.947-3.1-.515.475-.5-.475Zm9.014-3.478L22,17.846l-5.9-5.511,2.116-1.314V12.7h4.239V8.676h-.462L24.93,6.848ZM14.623,12.334l-5.873,5.5L5.863,15.2V6.852L8.833,8.71l-.511.012v3.986l4.261-.035V11.058l2.04,1.277Zm6.888-.505H19.147V10.444l1.431-.893h.933Zm-9.865-.023-2.386.019V9.576l.921-.022,1.465.917Zm8.53-3.057-4.349,2.7V3.425h5.966L24.651,5.97ZM14.888,3.425v8.022L6.136,5.969,8.944,3.425ZM3.991,4.842,7.43,1.779l-.647-.633L3.344,4.209ZM26.7,4.817l.647-.633L23.905,1.121l-.647.633Z" transform="translate(-3.344 -1.121)" fill="#131523"/></g></g></svg>